<svg width="190" height="221" viewBox="0 0 190 221" fill="none" xmlns="http://www.w3.org/2000/svg">
<g filter="url(#filter0_d)">
<path d="M20 0L170 0C170 0 170 144.107 170 158.869C170 173.631 78.8553 135.218 98.9067 182.885C108.932 206.718 101.904 202.573 86.0211 194.542C55.6804 179.2 20 147.96 20 113.961V0Z" fill="white"/>
</g>
<path d="M57.875 65.0222H47.75V75.4812H42.4766V49.8874H59.1406V54.1589H47.75V60.7683H57.875V65.0222ZM72.0957 61.2253C71.4043 61.1316 70.7949 61.0847 70.2676 61.0847C68.3457 61.0847 67.0859 61.7351 66.4883 63.0359V75.4812H61.4082V56.4616H66.207L66.3477 58.7292C67.3672 56.9831 68.7793 56.1101 70.584 56.1101C71.1465 56.1101 71.6738 56.1863 72.166 56.3386L72.0957 61.2253ZM85.9473 73.5476C84.6934 75.071 82.959 75.8327 80.7441 75.8327C78.7051 75.8327 77.1465 75.2468 76.0684 74.0749C75.002 72.9031 74.457 71.1863 74.4336 68.9245V56.4616H79.5137V68.7488C79.5137 70.7292 80.416 71.7195 82.2207 71.7195C83.9434 71.7195 85.127 71.1218 85.7715 69.9265V56.4616H90.8691V75.4812H86.0879L85.9473 73.5476ZM105.002 70.2253C105.002 69.6042 104.691 69.1179 104.07 68.7663C103.461 68.4031 102.477 68.0808 101.117 67.7995C96.5938 66.8503 94.332 64.9284 94.332 62.0339C94.332 60.3464 95.0293 58.9402 96.4238 57.8152C97.8301 56.6784 99.6641 56.1101 101.926 56.1101C104.34 56.1101 106.268 56.6784 107.709 57.8152C109.162 58.9519 109.889 60.4284 109.889 62.2449H104.809C104.809 61.5183 104.574 60.9206 104.105 60.4519C103.637 59.9714 102.904 59.7312 101.908 59.7312C101.053 59.7312 100.391 59.9245 99.9219 60.3113C99.4531 60.698 99.2188 61.1902 99.2188 61.7878C99.2188 62.3503 99.4824 62.8074 100.01 63.1589C100.549 63.4988 101.451 63.7976 102.717 64.0554C103.982 64.3015 105.049 64.5827 105.916 64.8991C108.6 65.8835 109.941 67.5886 109.941 70.0144C109.941 71.7488 109.197 73.155 107.709 74.2331C106.221 75.2995 104.299 75.8327 101.943 75.8327C100.35 75.8327 98.9316 75.5515 97.6895 74.989C96.459 74.4148 95.4922 73.6355 94.7891 72.6511C94.0859 71.655 93.7344 70.5827 93.7344 69.4343H98.5508C98.5977 70.3366 98.9316 71.0281 99.5527 71.5085C100.174 71.989 101.006 72.2292 102.049 72.2292C103.021 72.2292 103.754 72.0476 104.246 71.6843C104.75 71.3093 105.002 70.823 105.002 70.2253ZM102.049 50.9773L104.615 48.4636H108.957V48.657L103.648 53.5964H100.432L95.123 48.6218V48.4636H99.4648L102.049 50.9773ZM120.137 67.8523L118.309 69.6804V75.4812H113.229V48.4812H118.309V63.4402L119.293 62.1745L124.162 56.4616H130.262L123.389 64.3894L130.859 75.4812H125.023L120.137 67.8523ZM143.48 75.4812C143.246 75.0241 143.076 74.4558 142.971 73.7761C141.74 75.1472 140.141 75.8327 138.172 75.8327C136.309 75.8327 134.762 75.2937 133.531 74.2156C132.312 73.1374 131.703 71.7781 131.703 70.1374C131.703 68.1218 132.447 66.5749 133.936 65.4968C135.436 64.4187 137.598 63.8738 140.422 63.862H142.76V62.7722C142.76 61.8933 142.531 61.1902 142.074 60.6628C141.629 60.1355 140.92 59.8718 139.947 59.8718C139.092 59.8718 138.418 60.0769 137.926 60.487C137.445 60.8972 137.205 61.4597 137.205 62.1745H132.125C132.125 61.073 132.465 60.0534 133.145 59.1159C133.824 58.1784 134.785 57.446 136.027 56.9187C137.27 56.3796 138.664 56.1101 140.211 56.1101C142.555 56.1101 144.412 56.7019 145.783 57.8855C147.166 59.0574 147.857 60.7097 147.857 62.8425V71.0866C147.869 72.8913 148.121 74.2566 148.613 75.1824V75.4812H143.48ZM139.279 71.948C140.029 71.948 140.721 71.7839 141.354 71.4558C141.986 71.1159 142.455 70.6648 142.76 70.1023V66.8327H140.861C138.318 66.8327 136.965 67.7116 136.801 69.4695L136.783 69.7683C136.783 70.4011 137.006 70.9226 137.451 71.3327C137.896 71.7429 138.506 71.948 139.279 71.948ZM65.1201 120.564C64.1084 122.013 62.6934 123.1 60.875 123.825C59.0703 124.536 56.9648 124.891 54.5586 124.891C52.125 124.891 49.9648 124.324 48.0781 123.189C46.1914 122.041 44.7285 120.414 43.6895 118.308C42.6641 116.203 42.1377 113.762 42.1104 110.987V108.383C42.1104 103.884 43.1562 100.398 45.248 97.9236C47.3535 95.449 50.3066 94.2116 54.1074 94.2116C57.2246 94.2116 59.7334 95.0115 61.6338 96.6111C63.5342 98.197 64.6963 100.453 65.1201 103.379H61.1826C60.4443 99.4275 58.0928 97.4519 54.1279 97.4519C51.4893 97.4519 49.4863 98.3816 48.1191 100.241C46.7656 102.087 46.082 104.766 46.0684 108.28V110.72C46.0684 114.07 46.834 116.736 48.3652 118.718C49.8965 120.687 51.9678 121.672 54.5791 121.672C56.0557 121.672 57.3477 121.508 58.4551 121.179C59.5625 120.851 60.4785 120.298 61.2031 119.518V112.812H54.292V109.613H65.1201V120.564ZM94.6719 110.515C94.6719 113.441 94.1797 115.998 93.1953 118.185C92.2109 120.359 90.8164 122.02 89.0117 123.169C87.207 124.317 85.1016 124.891 82.6953 124.891C80.3438 124.891 78.2588 124.317 76.4404 123.169C74.6221 122.007 73.207 120.359 72.1953 118.226C71.1973 116.08 70.6846 113.598 70.6572 110.782V108.629C70.6572 105.758 71.1562 103.221 72.1543 101.02C73.1523 98.8191 74.5605 97.1374 76.3789 95.9753C78.2109 94.7995 80.3027 94.2116 82.6543 94.2116C85.0469 94.2116 87.1523 94.7927 88.9707 95.9548C90.8027 97.1032 92.2109 98.7781 93.1953 100.979C94.1797 103.167 94.6719 105.717 94.6719 108.629V110.515ZM90.7549 108.588C90.7549 105.047 90.0439 102.333 88.6221 100.446C87.2002 98.5456 85.2109 97.5954 82.6543 97.5954C80.166 97.5954 78.2041 98.5456 76.7686 100.446C75.3467 102.333 74.6152 104.958 74.5742 108.321V110.515C74.5742 113.947 75.292 116.647 76.7275 118.616C78.1768 120.571 80.166 121.549 82.6953 121.549C85.2383 121.549 87.207 120.626 88.6016 118.78C89.9961 116.921 90.7139 114.261 90.7549 110.802V108.588ZM111.529 112.402H104.516V124.481H100.558V94.6218H110.442C113.806 94.6218 116.39 95.3874 118.194 96.9187C120.013 98.4499 120.922 100.678 120.922 103.604C120.922 105.464 120.416 107.084 119.404 108.465C118.406 109.845 117.012 110.878 115.221 111.561L122.234 124.235V124.481H118.01L111.529 112.402ZM104.516 109.182H110.565C112.521 109.182 114.072 108.676 115.221 107.665C116.383 106.653 116.964 105.3 116.964 103.604C116.964 101.759 116.41 100.343 115.303 99.3591C114.209 98.3747 112.623 97.8757 110.545 97.862H104.516V109.182ZM142.947 116.688H130.438L127.628 124.481H123.567L134.97 94.6218H138.415L149.838 124.481H145.798L142.947 116.688ZM131.627 113.448H141.778L136.692 99.4822L131.627 113.448Z" fill="#318F35"/>
<defs>
<filter id="filter0_d" x="0" y="-20" width="190" height="240.834" filterUnits="userSpaceOnUse" color-interpolation-filters="sRGB">
<feFlood flood-opacity="0" result="BackgroundImageFix"/>
<feColorMatrix in="SourceAlpha" type="matrix" values="0 0 0 0 0 0 0 0 0 0 0 0 0 0 0 0 0 0 127 0"/>
<feOffset/>
<feGaussianBlur stdDeviation="10"/>
<feColorMatrix type="matrix" values="0 0 0 0 0 0 0 0 0 0 0 0 0 0 0 0 0 0 0.1 0"/>
<feBlend mode="normal" in2="BackgroundImageFix" result="effect1_dropShadow"/>
<feBlend mode="normal" in="SourceGraphic" in2="effect1_dropShadow" result="shape"/>
</filter>
</defs>
</svg>
